<svg width="245" height="68" viewBox="0 0 245 68" fill="none" xmlns="http://www.w3.org/2000/svg">
<path d="M90.4969 25.9L90.4569 22.78L88.0969 14.12H83.0369L84.8769 15.54L84.9969 15.94L82.2969 25.92L82.2169 22.62L79.8969 14.12H74.6369L76.4769 15.54L80.2569 29H84.0769L86.3169 20.68L88.6569 29H92.2769L96.2969 14.12H91.4369L93.2969 15.54L90.4969 25.9ZM99.7592 24.02L101.139 19.9L101.379 16.7L103.919 24.02H99.7592ZM98.2992 14.12L100.039 15.46L96.2192 26.72L95.0392 29H98.0792L98.7792 26.94L97.5592 26.34L104.719 26.32L105.659 29H109.899L108.679 26.7L104.299 14.12H98.2992ZM118.454 28.14L118.214 29H123.694L117.374 20.34L122.814 14.12H117.314L118.694 15.18L114.894 19.92V14.12H109.034L111.274 15.84V26.7L110.674 29H114.894V24.72L114.014 22.06L118.454 28.14ZM128.177 24.02L129.557 19.9L129.797 16.7L132.337 24.02H128.177ZM126.717 14.12L128.457 15.46L124.637 26.72L123.457 29H126.497L127.197 26.94L125.977 26.34L133.137 26.32L134.077 29H138.317L137.097 26.7L132.717 14.12H126.717ZM141.432 19.36L148.692 29H152.112L151.512 26.7V14.12H146.452L148.692 15.84V21.44L149.792 24.36L142.292 14.12H137.452L139.692 15.84V26.7L139.092 29H142.512V22.26L141.432 19.36ZM155.974 16.42H159.714C161.994 16.42 163.154 19 163.154 21.58C163.154 24.14 162.034 26.7 159.734 26.7H158.214V17.28L155.974 16.42ZM154.594 26.7L153.994 29H161.194C165.114 29 167.094 25.26 167.094 21.54C167.094 17.82 165.134 14.12 161.194 14.12H152.354L154.594 15.84V26.7ZM171.888 24.02L173.268 19.9L173.508 16.7L176.048 24.02H171.888ZM170.428 14.12L172.168 15.46L168.348 26.72L167.168 29H170.208L170.908 26.94L169.688 26.34L176.848 26.32L177.788 29H182.028L180.808 26.7L176.428 14.12H170.428Z" fill="#FC7E00"/>
<path d="M80.5969 49V44.42L79.5369 40.4L82.4569 46.78L86.4369 46.76V46.74L88.1569 43.2L88.9969 40.42L88.7969 49H93.0369L92.4369 46.7V34.12H87.5969L89.2369 35.38L85.1569 44L80.5969 34.12H74.7369L76.9769 35.84V46.7L76.3769 49H80.5969ZM94.252 41.54C94.252 46.66 97.832 49.24 101.432 49.24C105.012 49.24 108.612 46.66 108.612 41.54C108.612 36.44 105.032 33.88 101.432 33.88H96.592L98.112 34.68C95.912 35.8 94.252 38.08 94.252 41.54ZM104.672 41.58C104.672 45.02 103.052 46.72 101.432 46.72C99.812 46.72 98.192 45.02 98.192 41.58C98.192 38.12 99.812 36.4 101.432 36.4C103.052 36.4 104.672 38.12 104.672 41.58ZM112.428 39.36L119.688 49H123.108L122.508 46.7V34.12H117.448L119.688 35.84V41.44L120.788 44.36L113.288 34.12H108.448L110.688 35.84V46.7L110.088 49H113.508V42.26L112.428 39.36ZM125.59 35.84V46.7L124.99 49H129.81L129.21 46.7V34.12H123.35L125.59 35.84Z" fill="white"/>
<path d="M54.8023 31.9518C54.8236 31.9 54.8334 31.8442 54.8311 31.7883C54.8288 31.7324 54.8146 31.6776 54.7892 31.6277C54.3883 30.9018 53.9743 30.1824 53.5603 29.464C53.269 28.9573 52.9693 28.4552 52.6405 27.8932L45.1838 40.8041C45.1416 40.7798 45.1164 40.7732 45.1079 40.7582C44.6471 39.9686 44.1834 39.1809 43.7348 38.3857C43.7216 38.3386 43.7184 38.2892 43.7255 38.2408C43.7326 38.1924 43.7498 38.146 43.776 38.1047C44.3205 37.1455 44.8706 36.1898 45.4264 35.2376C45.4686 35.1798 45.4914 35.1101 45.4914 35.0385C45.4914 34.967 45.4686 34.8973 45.4264 34.8395C45.004 34.1267 44.6031 33.4017 44.19 32.6852C43.9034 32.1869 43.6102 31.6914 43.2833 31.1322L37.669 40.8538C37.0864 39.8431 36.5403 38.8924 35.9914 37.9426C34.8356 35.9444 33.6804 33.9437 32.5258 31.9405C32.5049 31.8977 32.4935 31.8508 32.4923 31.8031C32.4912 31.7554 32.5004 31.708 32.5192 31.6642C32.8995 30.9861 33.291 30.3145 33.6807 29.641C34.7841 27.7327 35.8881 25.8248 36.9927 23.9171C38.186 21.8565 39.3787 19.7927 40.5707 17.7258C40.7234 17.4617 40.8658 17.191 41.0391 16.8828C39.547 16.8828 38.1204 16.8828 36.693 16.8922C36.5993 16.8922 36.4794 17.0093 36.4251 17.1029C35.2705 19.0918 34.1194 21.0825 32.9716 23.0751C31.3481 25.885 29.7196 28.691 28.086 31.4928C28.0249 31.5822 27.9922 31.688 27.9922 31.7963C27.9922 31.9046 28.0249 32.0104 28.086 32.0998C29.24 34.0874 30.3896 36.0781 31.5348 38.0719C33.1646 40.8894 34.7981 43.7046 36.4354 46.5177C36.4706 46.5692 36.5164 46.6124 36.5697 46.6447C36.623 46.677 36.6826 46.6976 36.7445 46.7051C37.3683 46.7229 37.9921 46.7201 38.6178 46.7051C38.6717 46.7017 38.7241 46.6867 38.7717 46.6612C38.8192 46.6356 38.8607 46.6001 38.8932 46.5571C39.4861 45.5417 40.065 44.518 40.6513 43.4989C40.8911 43.083 41.1421 42.6737 41.4006 42.2391C41.448 42.2838 41.4913 42.3327 41.5299 42.3852C42.312 43.7406 43.095 45.095 43.8715 46.4559C43.9774 46.6433 44.0926 46.7276 44.3155 46.7163C44.7164 46.6966 45.1192 46.7107 45.521 46.7107C46.3237 46.7107 46.3125 46.7051 46.7134 46.0073C48.0128 43.7393 49.3173 41.4745 50.6267 39.2127C52.0167 36.793 53.4086 34.3727 54.8023 31.9518Z" fill="url(#paint0_linear_308_4021)"/>
<path d="M62.2686 31.9875C62.2954 31.9296 62.3093 31.8664 62.3093 31.8026C62.3093 31.7387 62.2954 31.6755 62.2686 31.6176C61.4331 30.1479 60.5826 28.6868 59.7396 27.2228C58.921 25.804 58.103 24.3847 57.2856 22.9647C56.1578 21.009 55.0304 19.0532 53.9033 17.0975C53.8665 17.0226 53.8074 16.9609 53.7341 16.921C53.6608 16.8811 53.5769 16.8648 53.494 16.8746C52.9442 16.8858 52.3934 16.8924 51.8445 16.8746C51.7424 16.8623 51.639 16.8829 51.5493 16.9334C51.4597 16.984 51.3886 17.0618 51.3462 17.1556C50.6906 18.3151 50.0208 19.4682 49.3539 20.6212C49.2116 20.8685 49.0598 21.1101 48.8922 21.3893C48.0398 19.9168 47.224 18.4997 46.395 17.0909C46.3567 17.0351 46.3068 16.9881 46.2488 16.9531C46.1908 16.918 46.1261 16.8957 46.0588 16.8877C45.4562 16.8671 44.8536 16.8671 44.251 16.8877C44.1822 16.8947 44.1156 16.9163 44.0557 16.951C43.9957 16.9858 43.9439 17.0328 43.9035 17.0891C43.1935 18.2908 42.4985 19.5019 41.8007 20.7121C40.7298 22.5654 39.6614 24.4218 38.5955 26.2814C37.6841 27.8644 36.8055 29.4661 35.8436 31.019C35.483 31.6007 35.4755 32.0194 35.8436 32.5889C36.488 33.5771 37.0406 34.6261 37.6645 35.708L45.1521 22.7427C45.6457 23.6007 46.114 24.3969 46.5571 25.2071C46.6058 25.2961 46.5355 25.4815 46.4719 25.5949C45.9539 26.5081 45.4172 27.411 44.9076 28.328C44.8754 28.3989 44.8588 28.4759 44.8588 28.5538C44.8588 28.6316 44.8754 28.7086 44.9076 28.7795C45.3853 29.6553 45.8864 30.517 46.3829 31.3815C46.5843 31.7328 46.7931 32.0784 47.0273 32.4737L52.6323 22.7558C52.7156 22.8832 52.7653 22.9497 52.8065 23.0219C53.4028 24.059 53.9992 25.0962 54.5955 26.1334C55.6417 27.9421 56.6955 29.748 57.7324 31.566C57.7661 31.637 57.7841 31.7145 57.7851 31.793C57.786 31.8716 57.77 31.9495 57.738 32.0213C57.0964 33.1659 56.4323 34.2992 55.771 35.4363C54.7838 37.1448 53.7968 38.8539 52.8102 40.5636C51.951 42.0529 51.089 43.5434 50.2241 45.0352C49.9103 45.5775 49.6022 46.1236 49.2781 46.6912C49.3329 46.701 49.3883 46.7079 49.4439 46.7118C50.8189 46.7118 52.1939 46.7193 53.5698 46.7024C53.6422 46.6897 53.7111 46.6619 53.7719 46.6207C53.8328 46.5796 53.8842 46.526 53.923 46.4636C54.1225 46.1367 54.3126 45.8033 54.5009 45.4689L56.2271 42.4716L56.2618 42.4819C56.2571 42.4669 56.2515 42.4528 56.2468 42.4378L56.4342 42.1194L56.4735 42.1522C56.4838 42.0978 56.4941 42.0463 56.5044 41.9967L58.7055 38.1723C59.8945 36.1098 61.0822 34.0482 62.2686 31.9875Z" fill="url(#paint1_linear_308_4021)"/>
<path d="M55.7237 13.4766H45.8935L45.3193 14.4928H55.1373L65.1259 31.792L55.1373 49.0921H47.9766L47.4146 50.1083H55.7246L66.2995 31.792L55.7237 13.4766ZM25.1736 31.792L35.1612 14.4928H42.5515L43.1678 13.4766H34.5749L24 31.792L34.5749 50.1083H44.2655L44.865 49.0921H35.1612L25.1736 31.792Z" fill="white"/>
<defs>
<linearGradient id="paint0_linear_308_4021" x1="27.9924" y1="31.7982" x2="54.8295" y2="31.7982" gradientUnits="userSpaceOnUse">
<stop stop-color="#FD1F26"/>
<stop offset="1" stop-color="#FF890A"/>
</linearGradient>
<linearGradient id="paint1_linear_308_4021" x1="35.5691" y1="31.7908" x2="62.3089" y2="31.7908" gradientUnits="userSpaceOnUse">
<stop stop-color="#FD1F26"/>
<stop offset="1" stop-color="#FF890A"/>
</linearGradient>
</defs>
</svg>
